<svg width="194" height="214" viewBox="0 0 194 214" fill="none" xmlns="http://www.w3.org/2000/svg">
<rect width="194" height="214" rx="10" fill="#141522"/>
<path d="M29.632 97.384C28.0747 97.384 26.688 97.0427 25.472 96.36C24.256 95.6773 23.296 94.7387 22.592 93.544C21.9093 92.3493 21.568 90.9947 21.568 89.48C21.568 88.6907 21.6533 87.9013 21.824 87.112C21.9947 86.3227 22.2933 85.5013 22.72 84.648C23.168 83.7947 23.7653 82.8773 24.512 81.896L31.168 73.16H35.68L27.52 83.72L26.88 83.304C27.1787 82.9627 27.4987 82.696 27.84 82.504C28.2027 82.312 28.576 82.1733 28.96 82.088C29.3653 82.0027 29.792 81.96 30.24 81.96C31.6693 81.96 32.9493 82.2907 34.08 82.952C35.2107 83.6133 36.096 84.5093 36.736 85.64C37.3973 86.7707 37.728 88.072 37.728 89.544C37.728 91.0373 37.376 92.3813 36.672 93.576C35.968 94.7493 35.008 95.6773 33.792 96.36C32.5973 97.0427 31.2107 97.384 29.632 97.384ZM29.632 94.024C30.464 94.024 31.2 93.832 31.84 93.448C32.48 93.064 32.992 92.5413 33.376 91.88C33.76 91.1973 33.952 90.4293 33.952 89.576C33.952 88.7013 33.76 87.9333 33.376 87.272C33.0133 86.6107 32.5013 86.0987 31.84 85.736C31.2 85.352 30.464 85.16 29.632 85.16C28.8213 85.16 28.0853 85.352 27.424 85.736C26.784 86.0987 26.272 86.6107 25.888 87.272C25.504 87.9333 25.312 88.7013 25.312 89.576C25.312 90.4293 25.504 91.1973 25.888 91.88C26.272 92.5413 26.784 93.064 27.424 93.448C28.0853 93.832 28.8213 94.024 29.632 94.024ZM47.8268 97.384C46.5681 97.384 45.3841 97.16 44.2748 96.712C43.1654 96.2427 42.2054 95.592 41.3948 94.76C40.5841 93.928 40.0081 92.9253 39.6668 91.752L42.8348 90.536C43.2401 91.6667 43.9014 92.5307 44.8188 93.128C45.7361 93.7253 46.7388 94.024 47.8268 94.024C48.7228 94.024 49.5121 93.8213 50.1948 93.416C50.8774 93.0107 51.4108 92.456 51.7948 91.752C52.2001 91.048 52.4028 90.248 52.4028 89.352C52.4028 88.4347 52.2001 87.6347 51.7948 86.952C51.4108 86.248 50.8774 85.704 50.1948 85.32C49.5121 84.9147 48.7228 84.712 47.8268 84.712C46.9308 84.712 46.1094 84.9147 45.3628 85.32C44.6161 85.7253 44.0721 86.2693 43.7308 86.952L40.6908 86.28L42.5468 73.16H55.2508V76.36H44.0188L45.4588 74.792L44.0828 84.84L42.8988 84.04C43.5388 83.144 44.3174 82.4933 45.2348 82.088C46.1521 81.6827 47.1974 81.48 48.3708 81.48C49.9281 81.48 51.2828 81.832 52.4348 82.536C53.6081 83.2187 54.5148 84.1573 55.1548 85.352C55.8161 86.5253 56.1468 87.8587 56.1468 89.352C56.1468 90.8667 55.7841 92.232 55.0588 93.448C54.3334 94.664 53.3414 95.624 52.0828 96.328C50.8454 97.032 49.4268 97.384 47.8268 97.384Z" fill="white"/>
<path d="M21.232 39V27.08H25.568C26.368 27.08 27.072 27.2293 27.68 27.528C28.288 27.816 28.7627 28.2427 29.104 28.808C29.456 29.3627 29.632 30.0293 29.632 30.808C29.632 31.6293 29.424 32.3333 29.008 32.92C28.6027 33.5067 28.0533 33.9333 27.36 34.2L30.112 39H27.968L25.04 33.8L26.272 34.52H23.12V39H21.232ZM23.12 32.84H25.6C26.0373 32.84 26.416 32.7547 26.736 32.584C27.056 32.4133 27.3013 32.1787 27.472 31.88C27.6533 31.5707 27.744 31.208 27.744 30.792C27.744 30.376 27.6533 30.0187 27.472 29.72C27.3013 29.4107 27.056 29.176 26.736 29.016C26.416 28.8453 26.0373 28.76 25.6 28.76H23.12V32.84ZM34.2928 39.192C33.6421 39.192 33.0714 39.048 32.5808 38.76C32.0901 38.4613 31.7061 38.0507 31.4288 37.528C31.1621 36.9947 31.0288 36.3813 31.0288 35.688V30.344H32.8368V35.528C32.8368 35.9227 32.9168 36.2693 33.0768 36.568C33.2368 36.8667 33.4608 37.1013 33.7488 37.272C34.0368 37.432 34.3674 37.512 34.7408 37.512C35.1248 37.512 35.4608 37.4267 35.7488 37.256C36.0368 37.0853 36.2608 36.8453 36.4208 36.536C36.5914 36.2267 36.6768 35.864 36.6768 35.448V30.344H38.4688V39H36.7568V37.304L36.9488 37.528C36.7461 38.0613 36.4101 38.472 35.9408 38.76C35.4714 39.048 34.9221 39.192 34.2928 39.192ZM40.2598 39V30.344H41.9878V32.04L41.7798 31.816C41.9931 31.272 42.3344 30.8613 42.8038 30.584C43.2731 30.296 43.8171 30.152 44.4358 30.152C45.0758 30.152 45.6411 30.2907 46.1318 30.568C46.6224 30.8453 47.0064 31.2293 47.2838 31.72C47.5611 32.2107 47.6998 32.776 47.6998 33.416V39H45.9078V33.896C45.9078 33.4587 45.8278 33.0907 45.6678 32.792C45.5078 32.4827 45.2784 32.248 44.9798 32.088C44.6918 31.9173 44.3611 31.832 43.9878 31.832C43.6144 31.832 43.2784 31.9173 42.9798 32.088C42.6918 32.248 42.4678 32.4827 42.3078 32.792C42.1478 33.1013 42.0678 33.4693 42.0678 33.896V39H40.2598ZM49.3148 39V30.344H51.0428V32.04L50.8348 31.816C51.0481 31.272 51.3894 30.8613 51.8588 30.584C52.3281 30.296 52.8721 30.152 53.4908 30.152C54.1308 30.152 54.6961 30.2907 55.1868 30.568C55.6774 30.8453 56.0614 31.2293 56.3388 31.72C56.6161 32.2107 56.7548 32.776 56.7548 33.416V39H54.9628V33.896C54.9628 33.4587 54.8828 33.0907 54.7228 32.792C54.5628 32.4827 54.3334 32.248 54.0348 32.088C53.7468 31.9173 53.4161 31.832 53.0428 31.832C52.6694 31.832 52.3334 31.9173 52.0348 32.088C51.7468 32.248 51.5228 32.4827 51.3628 32.792C51.2028 33.1013 51.1228 33.4693 51.1228 33.896V39H49.3148ZM58.3698 39V30.344H60.1778V39H58.3698ZM58.3698 29.16V27.08H60.1778V29.16H58.3698ZM61.9716 39V30.344H63.6996V32.04L63.4916 31.816C63.705 31.272 64.0463 30.8613 64.5156 30.584C64.985 30.296 65.529 30.152 66.1476 30.152C66.7876 30.152 67.353 30.2907 67.8436 30.568C68.3343 30.8453 68.7183 31.2293 68.9956 31.72C69.273 32.2107 69.4116 32.776 69.4116 33.416V39H67.6196V33.896C67.6196 33.4587 67.5396 33.0907 67.3796 32.792C67.2196 32.4827 66.9903 32.248 66.6916 32.088C66.4036 31.9173 66.073 31.832 65.6996 31.832C65.3263 31.832 64.9903 31.9173 64.6916 32.088C64.4036 32.248 64.1796 32.4827 64.0196 32.792C63.8596 33.1013 63.7796 33.4693 63.7796 33.896V39H61.9716ZM75.2026 42.52C74.5733 42.52 73.992 42.4187 73.4586 42.216C72.9253 42.0133 72.4666 41.7307 72.0826 41.368C71.6986 41.016 71.4106 40.6 71.2186 40.12L72.8826 39.432C73.032 39.8373 73.304 40.1733 73.6986 40.44C74.104 40.7067 74.6 40.84 75.1866 40.84C75.6453 40.84 76.056 40.7493 76.4186 40.568C76.7813 40.3973 77.0693 40.1413 77.2826 39.8C77.496 39.4693 77.6026 39.0693 77.6026 38.6V36.648L77.9226 37.016C77.624 37.5707 77.208 37.992 76.6746 38.28C76.152 38.568 75.56 38.712 74.8986 38.712C74.0986 38.712 73.3786 38.5253 72.7386 38.152C72.0986 37.7787 71.592 37.2667 71.2186 36.616C70.856 35.9653 70.6746 35.2347 70.6746 34.424C70.6746 33.6027 70.856 32.872 71.2186 32.232C71.592 31.592 72.0933 31.0853 72.7226 30.712C73.352 30.3387 74.072 30.152 74.8826 30.152C75.544 30.152 76.1306 30.296 76.6426 30.584C77.1653 30.8613 77.592 31.2667 77.9226 31.8L77.6826 32.248V30.344H79.3946V38.6C79.3946 39.3467 79.2133 40.0133 78.8506 40.6C78.4986 41.1973 78.008 41.6667 77.3786 42.008C76.7493 42.3493 76.024 42.52 75.2026 42.52ZM75.1066 37.032C75.5866 37.032 76.0133 36.92 76.3866 36.696C76.76 36.4613 77.0533 36.152 77.2666 35.768C77.4906 35.3733 77.6026 34.9307 77.6026 34.44C77.6026 33.9493 77.4906 33.5067 77.2666 33.112C77.0426 32.7173 76.744 32.408 76.3706 32.184C75.9973 31.9493 75.576 31.832 75.1066 31.832C74.616 31.832 74.1786 31.9493 73.7946 32.184C73.4106 32.408 73.1066 32.7173 72.8826 33.112C72.6693 33.496 72.5626 33.9387 72.5626 34.44C72.5626 34.92 72.6693 35.3573 72.8826 35.752C73.1066 36.1467 73.4106 36.4613 73.7946 36.696C74.1786 36.92 74.616 37.032 75.1066 37.032ZM85.9559 39V28.76H82.7879V27.08H90.9479V28.76H87.8279V39H85.9559ZM93.5024 39.192C92.9157 39.192 92.3984 39.0907 91.9504 38.888C91.513 38.6747 91.1717 38.3867 90.9264 38.024C90.681 37.6507 90.5584 37.2133 90.5584 36.712C90.5584 36.2427 90.6597 35.8213 90.8624 35.448C91.0757 35.0747 91.401 34.76 91.8384 34.504C92.2757 34.248 92.825 34.0667 93.4864 33.96L96.4944 33.464V34.888L93.8384 35.352C93.3584 35.4373 93.0064 35.592 92.7824 35.816C92.5584 36.0293 92.4464 36.3067 92.4464 36.648C92.4464 36.9787 92.569 37.2507 92.8144 37.464C93.0704 37.6667 93.3957 37.768 93.7904 37.768C94.281 37.768 94.7077 37.6613 95.0704 37.448C95.4437 37.2347 95.7317 36.952 95.9344 36.6C96.137 36.2373 96.2384 35.8373 96.2384 35.4V33.176C96.2384 32.7493 96.0784 32.4027 95.7584 32.136C95.449 31.8587 95.033 31.72 94.5104 31.72C94.0304 31.72 93.609 31.848 93.2464 32.104C92.8944 32.3493 92.633 32.6693 92.4624 33.064L90.9584 32.312C91.1184 31.8853 91.3797 31.512 91.7424 31.192C92.105 30.8613 92.5264 30.6053 93.0064 30.424C93.497 30.2427 94.0144 30.152 94.5584 30.152C95.241 30.152 95.8437 30.28 96.3664 30.536C96.8997 30.792 97.3104 31.1493 97.5984 31.608C97.897 32.056 98.0464 32.5787 98.0464 33.176V39H96.3184V37.432L96.6864 37.48C96.4837 37.832 96.2224 38.136 95.9024 38.392C95.593 38.648 95.2357 38.8453 94.8304 38.984C94.4357 39.1227 93.993 39.192 93.5024 39.192ZM103.04 39.192C102.155 39.192 101.376 38.9733 100.704 38.536C100.043 38.0987 99.579 37.512 99.3124 36.776L100.704 36.12C100.939 36.6107 101.259 37 101.664 37.288C102.08 37.576 102.539 37.72 103.04 37.72C103.467 37.72 103.814 37.624 104.08 37.432C104.347 37.24 104.48 36.9787 104.48 36.648C104.48 36.4347 104.422 36.264 104.304 36.136C104.187 35.9973 104.038 35.8853 103.856 35.8C103.686 35.7147 103.51 35.6507 103.328 35.608L101.968 35.224C101.222 35.0107 100.662 34.6907 100.288 34.264C99.9257 33.8267 99.7444 33.32 99.7444 32.744C99.7444 32.2213 99.8777 31.768 100.144 31.384C100.411 30.9893 100.779 30.6853 101.248 30.472C101.718 30.2587 102.246 30.152 102.832 30.152C103.622 30.152 104.326 30.3493 104.944 30.744C105.563 31.128 106 31.6667 106.256 32.36L104.864 33.016C104.694 32.6 104.422 32.2693 104.048 32.024C103.686 31.7787 103.275 31.656 102.816 31.656C102.422 31.656 102.107 31.752 101.872 31.944C101.638 32.1253 101.52 32.3653 101.52 32.664C101.52 32.8667 101.574 33.0373 101.68 33.176C101.787 33.304 101.926 33.4107 102.096 33.496C102.267 33.5707 102.443 33.6347 102.624 33.688L104.032 34.104C104.747 34.3067 105.296 34.6267 105.68 35.064C106.064 35.4907 106.256 36.0027 106.256 36.6C106.256 37.112 106.118 37.5653 105.84 37.96C105.574 38.344 105.2 38.648 104.72 38.872C104.24 39.0853 103.68 39.192 103.04 39.192ZM107.708 39V26.888H109.516V35L108.812 34.824L113.148 30.344H115.404L112.14 33.816L115.548 39H113.468L110.428 34.408L111.5 34.264L108.94 36.984L109.516 35.784V39H107.708Z" fill="white"/>
<path opacity="0.1" fill-rule="evenodd" clip-rule="evenodd" d="M54 192C72.7777 192 88 176.778 88 158C88 139.222 72.7777 124 54 124C35.2223 124 20 139.222 20 158C20 176.778 35.2223 192 54 192Z" stroke="#546FFF" stroke-width="3"/>
<path d="M66.2448 189.728C78.972 184.813 88 172.461 88 158C88 139.222 72.7777 124 54 124" stroke="#546FFF" stroke-width="3" stroke-linecap="round" stroke-linejoin="round"/>
<path d="M41.4544 165V161.904H34.8664V160.446L41.4184 151.59H43.1104V160.446H44.8564V161.904H43.1104V165H41.4544ZM36.1984 161.076L35.9464 160.446H41.4544V153.066L41.9764 153.21L36.1984 161.076ZM50.6109 165.216C49.9149 165.216 49.2609 165.096 48.6489 164.856C48.0369 164.604 47.5029 164.25 47.0469 163.794C46.6029 163.326 46.2789 162.78 46.0749 162.156L47.5149 161.544C47.7669 162.204 48.1749 162.72 48.7389 163.092C49.3149 163.452 49.9389 163.632 50.6109 163.632C51.1629 163.632 51.6489 163.512 52.0689 163.272C52.5009 163.02 52.8369 162.678 53.0769 162.246C53.3169 161.802 53.4369 161.31 53.4369 160.77C53.4369 160.206 53.3109 159.708 53.0589 159.276C52.8189 158.844 52.4889 158.508 52.0689 158.268C51.6489 158.016 51.1689 157.89 50.6289 157.89C50.0769 157.89 49.5729 158.016 49.1169 158.268C48.6609 158.52 48.3309 158.838 48.1269 159.222L46.7049 158.916L47.7309 151.59H54.6789V153.12H48.3969L49.0809 152.436L48.2889 158.124L47.6769 157.764C48.0729 157.26 48.5349 156.9 49.0629 156.684C49.6029 156.456 50.1849 156.342 50.8089 156.342C51.6849 156.342 52.4529 156.54 53.1129 156.936C53.7729 157.332 54.2889 157.86 54.6609 158.52C55.0329 159.18 55.2189 159.93 55.2189 160.77C55.2189 161.61 55.0149 162.366 54.6069 163.038C54.2109 163.71 53.6649 164.244 52.9689 164.64C52.2849 165.024 51.4989 165.216 50.6109 165.216ZM58.5167 165L69.4607 151.59H71.4587L60.5147 165H58.5167ZM60.5327 158.394C59.8727 158.394 59.2787 158.238 58.7507 157.926C58.2227 157.602 57.7967 157.176 57.4727 156.648C57.1607 156.12 57.0047 155.532 57.0047 154.884C57.0047 154.236 57.1607 153.648 57.4727 153.12C57.7967 152.58 58.2227 152.154 58.7507 151.842C59.2787 151.53 59.8727 151.374 60.5327 151.374C61.1807 151.374 61.7687 151.53 62.2967 151.842C62.8247 152.154 63.2447 152.58 63.5567 153.12C63.8687 153.648 64.0247 154.236 64.0247 154.884C64.0247 155.532 63.8687 156.12 63.5567 156.648C63.2447 157.176 62.8247 157.602 62.2967 157.926C61.7687 158.238 61.1807 158.394 60.5327 158.394ZM60.5147 156.918C60.9227 156.918 61.2707 156.822 61.5587 156.63C61.8467 156.438 62.0747 156.186 62.2427 155.874C62.4107 155.562 62.4947 155.232 62.4947 154.884C62.4947 154.524 62.4107 154.194 62.2427 153.894C62.0747 153.582 61.8467 153.33 61.5587 153.138C61.2707 152.934 60.9227 152.832 60.5147 152.832C60.1307 152.832 59.7887 152.934 59.4887 153.138C59.1887 153.33 58.9547 153.582 58.7867 153.894C58.6187 154.206 58.5347 154.536 58.5347 154.884C58.5347 155.22 58.6187 155.55 58.7867 155.874C58.9547 156.186 59.1887 156.438 59.4887 156.63C59.7887 156.822 60.1307 156.918 60.5147 156.918ZM69.3347 165.216C68.6747 165.216 68.0807 165.06 67.5527 164.748C67.0247 164.424 66.5987 163.998 66.2747 163.47C65.9627 162.942 65.8067 162.354 65.8067 161.706C65.8067 161.058 65.9627 160.47 66.2747 159.942C66.5987 159.402 67.0247 158.976 67.5527 158.664C68.0807 158.352 68.6747 158.196 69.3347 158.196C69.9827 158.196 70.5707 158.352 71.0987 158.664C71.6267 158.976 72.0467 159.402 72.3587 159.942C72.6707 160.47 72.8267 161.058 72.8267 161.706C72.8267 162.354 72.6707 162.942 72.3587 163.47C72.0467 163.998 71.6267 164.424 71.0987 164.748C70.5707 165.06 69.9827 165.216 69.3347 165.216ZM69.3347 163.74C69.7307 163.74 70.0727 163.644 70.3607 163.452C70.6607 163.26 70.8887 163.008 71.0447 162.696C71.2127 162.384 71.2967 162.054 71.2967 161.706C71.2967 161.346 71.2127 161.016 71.0447 160.716C70.8887 160.404 70.6607 160.152 70.3607 159.96C70.0727 159.756 69.7307 159.654 69.3347 159.654C68.9507 159.654 68.6027 159.756 68.2907 159.96C67.9907 160.152 67.7567 160.404 67.5887 160.716C67.4207 161.028 67.3367 161.358 67.3367 161.706C67.3367 162.042 67.4207 162.372 67.5887 162.696C67.7567 163.008 67.9907 163.26 68.2907 163.452C68.6027 163.644 68.9507 163.74 69.3347 163.74Z" fill="white"/>
<path d="M109.52 155V142.1H106.66V140.1H111.86V155H109.52ZM120.612 155.24C119.425 155.24 118.385 154.92 117.492 154.28C116.599 153.627 115.899 152.727 115.392 151.58C114.899 150.42 114.652 149.073 114.652 147.54C114.652 145.993 114.899 144.647 115.392 143.5C115.899 142.353 116.592 141.46 117.472 140.82C118.365 140.18 119.405 139.86 120.592 139.86C121.779 139.86 122.812 140.18 123.692 140.82C124.585 141.46 125.279 142.36 125.772 143.52C126.279 144.667 126.532 146.007 126.532 147.54C126.532 149.073 126.285 150.42 125.792 151.58C125.299 152.727 124.605 153.627 123.712 154.28C122.832 154.92 121.799 155.24 120.612 155.24ZM120.612 153.08C121.345 153.08 121.979 152.853 122.512 152.4C123.045 151.947 123.459 151.307 123.752 150.48C124.045 149.653 124.192 148.673 124.192 147.54C124.192 146.407 124.045 145.427 123.752 144.6C123.459 143.773 123.045 143.133 122.512 142.68C121.979 142.227 121.339 142 120.592 142C119.859 142 119.225 142.227 118.692 142.68C118.159 143.133 117.745 143.773 117.452 144.6C117.159 145.427 117.012 146.407 117.012 147.54C117.012 148.66 117.159 149.64 117.452 150.48C117.745 151.307 118.159 151.947 118.692 152.4C119.239 152.853 119.879 153.08 120.612 153.08ZM134.528 155.24C133.342 155.24 132.302 154.92 131.408 154.28C130.515 153.627 129.815 152.727 129.308 151.58C128.815 150.42 128.568 149.073 128.568 147.54C128.568 145.993 128.815 144.647 129.308 143.5C129.815 142.353 130.508 141.46 131.388 140.82C132.282 140.18 133.322 139.86 134.508 139.86C135.695 139.86 136.728 140.18 137.608 140.82C138.502 141.46 139.195 142.36 139.688 143.52C140.195 144.667 140.448 146.007 140.448 147.54C140.448 149.073 140.202 150.42 139.708 151.58C139.215 152.727 138.522 153.627 137.628 154.28C136.748 154.92 135.715 155.24 134.528 155.24ZM134.528 153.08C135.262 153.08 135.895 152.853 136.428 152.4C136.962 151.947 137.375 151.307 137.668 150.48C137.962 149.653 138.108 148.673 138.108 147.54C138.108 146.407 137.962 145.427 137.668 144.6C137.375 143.773 136.962 143.133 136.428 142.68C135.895 142.227 135.255 142 134.508 142C133.775 142 133.142 142.227 132.608 142.68C132.075 143.133 131.662 143.773 131.368 144.6C131.075 145.427 130.928 146.407 130.928 147.54C130.928 148.66 131.075 149.64 131.368 150.48C131.662 151.307 132.075 151.947 132.608 152.4C133.155 152.853 133.795 153.08 134.528 153.08Z" fill="white"/>
<path d="M108.982 179V169.83H106.154V168.57H113.154V169.83H110.368V179H108.982ZM115.42 179.168C114.926 179.168 114.487 179.079 114.104 178.902C113.731 178.715 113.437 178.463 113.222 178.146C113.008 177.819 112.9 177.446 112.9 177.026C112.9 176.625 112.984 176.265 113.152 175.948C113.33 175.621 113.6 175.346 113.964 175.122C114.338 174.898 114.804 174.739 115.364 174.646L118.164 174.184V175.276L115.658 175.696C115.173 175.78 114.818 175.934 114.594 176.158C114.38 176.382 114.272 176.657 114.272 176.984C114.272 177.292 114.394 177.549 114.636 177.754C114.888 177.959 115.201 178.062 115.574 178.062C116.05 178.062 116.461 177.964 116.806 177.768C117.161 177.563 117.436 177.287 117.632 176.942C117.838 176.597 117.94 176.214 117.94 175.794V173.876C117.94 173.465 117.786 173.134 117.478 172.882C117.18 172.621 116.783 172.49 116.288 172.49C115.859 172.49 115.476 172.602 115.14 172.826C114.814 173.041 114.571 173.33 114.412 173.694L113.278 173.106C113.418 172.761 113.642 172.453 113.95 172.182C114.258 171.902 114.618 171.683 115.028 171.524C115.439 171.365 115.868 171.286 116.316 171.286C116.895 171.286 117.404 171.398 117.842 171.622C118.281 171.837 118.622 172.14 118.864 172.532C119.116 172.915 119.242 173.363 119.242 173.876V179H117.968V177.572L118.206 177.656C118.048 177.955 117.833 178.216 117.562 178.44C117.292 178.664 116.974 178.841 116.61 178.972C116.246 179.103 115.85 179.168 115.42 179.168ZM123.683 179.168C122.927 179.168 122.269 178.981 121.709 178.608C121.149 178.235 120.753 177.731 120.519 177.096L121.555 176.592C121.77 177.04 122.064 177.395 122.437 177.656C122.811 177.917 123.226 178.048 123.683 178.048C124.094 178.048 124.435 177.95 124.705 177.754C124.976 177.558 125.111 177.301 125.111 176.984C125.111 176.76 125.046 176.583 124.915 176.452C124.794 176.312 124.645 176.205 124.467 176.13C124.29 176.046 124.127 175.985 123.977 175.948L122.843 175.626C122.162 175.43 121.663 175.15 121.345 174.786C121.037 174.422 120.883 173.997 120.883 173.512C120.883 173.064 120.995 172.677 121.219 172.35C121.453 172.014 121.765 171.753 122.157 171.566C122.559 171.379 123.007 171.286 123.501 171.286C124.164 171.286 124.757 171.454 125.279 171.79C125.811 172.126 126.189 172.597 126.413 173.204L125.349 173.694C125.181 173.302 124.929 172.994 124.593 172.77C124.257 172.537 123.879 172.42 123.459 172.42C123.077 172.42 122.773 172.518 122.549 172.714C122.325 172.901 122.213 173.139 122.213 173.428C122.213 173.643 122.269 173.82 122.381 173.96C122.493 174.091 122.629 174.193 122.787 174.268C122.946 174.333 123.1 174.389 123.249 174.436L124.481 174.8C125.097 174.977 125.573 175.253 125.909 175.626C126.255 175.999 126.427 176.447 126.427 176.97C126.427 177.39 126.311 177.768 126.077 178.104C125.844 178.44 125.522 178.701 125.111 178.888C124.701 179.075 124.225 179.168 123.683 179.168ZM127.852 179V168.402H129.154V175.668L128.622 175.542L132.626 171.454H134.292L131.394 174.492L134.488 179H132.948L130.12 174.912L130.932 174.87L128.734 177.166L129.154 176.214V179H127.852Z" fill="#8E92BC"/>
</svg>
