<svg width="462" height="214" viewBox="0 0 462 214" fill="none" xmlns="http://www.w3.org/2000/svg">
<rect width="462" height="214" rx="10" fill="#F5F5F7"/>
<path d="M366.905 37V29.14H364.481V28.06H370.481V29.14H368.093V37H366.905ZM371.242 37V27.916H372.358V31.792L372.154 31.684C372.314 31.276 372.57 30.96 372.922 30.736C373.282 30.504 373.702 30.388 374.182 30.388C374.646 30.388 375.058 30.492 375.418 30.7C375.786 30.908 376.074 31.196 376.282 31.564C376.498 31.932 376.606 32.348 376.606 32.812V37H375.478V33.172C375.478 32.812 375.41 32.508 375.274 32.26C375.146 32.012 374.966 31.82 374.734 31.684C374.502 31.54 374.234 31.468 373.93 31.468C373.634 31.468 373.366 31.54 373.126 31.684C372.886 31.82 372.698 32.016 372.562 32.272C372.426 32.52 372.358 32.82 372.358 33.172V37H371.242ZM377.963 37V30.532H379.079V37H377.963ZM377.963 29.5V28.06H379.079V29.5H377.963ZM382.887 37.144C382.239 37.144 381.675 36.984 381.195 36.664C380.715 36.344 380.375 35.912 380.175 35.368L381.063 34.936C381.247 35.32 381.499 35.624 381.819 35.848C382.139 36.072 382.495 36.184 382.887 36.184C383.239 36.184 383.531 36.1 383.763 35.932C383.995 35.764 384.111 35.544 384.111 35.272C384.111 35.08 384.055 34.928 383.943 34.816C383.839 34.696 383.711 34.604 383.559 34.54C383.407 34.468 383.267 34.416 383.139 34.384L382.167 34.108C381.583 33.94 381.155 33.7 380.883 33.388C380.619 33.076 380.487 32.712 380.487 32.296C380.487 31.912 380.583 31.58 380.775 31.3C380.975 31.012 381.243 30.788 381.579 30.628C381.923 30.468 382.307 30.388 382.731 30.388C383.299 30.388 383.807 30.532 384.255 30.82C384.711 31.108 385.035 31.512 385.227 32.032L384.315 32.452C384.171 32.116 383.955 31.852 383.667 31.66C383.379 31.46 383.055 31.36 382.695 31.36C382.367 31.36 382.107 31.444 381.915 31.612C381.723 31.772 381.627 31.976 381.627 32.224C381.627 32.408 381.675 32.56 381.771 32.68C381.867 32.792 381.983 32.88 382.119 32.944C382.255 33 382.387 33.048 382.515 33.088L383.571 33.4C384.099 33.552 384.507 33.788 384.795 34.108C385.091 34.428 385.239 34.812 385.239 35.26C385.239 35.62 385.139 35.944 384.939 36.232C384.739 36.52 384.463 36.744 384.111 36.904C383.759 37.064 383.351 37.144 382.887 37.144ZM390.07 37L387.562 28.06H388.798L390.898 35.932H390.61L392.794 28.06H394.03L396.202 35.932H395.902L398.014 28.06H399.25L396.742 37H395.434L393.25 29.164H393.562L391.378 37H390.07ZM402.538 37.144C401.914 37.144 401.358 36.996 400.87 36.7C400.382 36.404 399.998 36 399.718 35.488C399.438 34.968 399.298 34.388 399.298 33.748C399.298 33.1 399.434 32.524 399.706 32.02C399.986 31.516 400.362 31.12 400.834 30.832C401.314 30.536 401.85 30.388 402.442 30.388C402.922 30.388 403.346 30.476 403.714 30.652C404.09 30.82 404.406 31.052 404.662 31.348C404.926 31.636 405.126 31.968 405.262 32.344C405.406 32.712 405.478 33.096 405.478 33.496C405.478 33.584 405.47 33.684 405.454 33.796C405.446 33.9 405.434 34 405.418 34.096H400.114V33.136H404.77L404.242 33.568C404.314 33.152 404.274 32.78 404.122 32.452C403.97 32.124 403.746 31.864 403.45 31.672C403.154 31.48 402.818 31.384 402.442 31.384C402.066 31.384 401.722 31.48 401.41 31.672C401.098 31.864 400.854 32.14 400.678 32.5C400.51 32.852 400.442 33.272 400.474 33.76C400.442 34.232 400.514 34.648 400.69 35.008C400.874 35.36 401.13 35.636 401.458 35.836C401.794 36.028 402.158 36.124 402.55 36.124C402.982 36.124 403.346 36.024 403.642 35.824C403.938 35.624 404.178 35.368 404.362 35.056L405.298 35.536C405.17 35.832 404.97 36.104 404.698 36.352C404.434 36.592 404.118 36.784 403.75 36.928C403.39 37.072 402.986 37.144 402.538 37.144ZM409.669 37.144C409.045 37.144 408.489 36.996 408.001 36.7C407.513 36.404 407.129 36 406.849 35.488C406.569 34.968 406.429 34.388 406.429 33.748C406.429 33.1 406.565 32.524 406.837 32.02C407.117 31.516 407.493 31.12 407.965 30.832C408.445 30.536 408.981 30.388 409.573 30.388C410.053 30.388 410.477 30.476 410.845 30.652C411.221 30.82 411.537 31.052 411.793 31.348C412.057 31.636 412.257 31.968 412.393 32.344C412.537 32.712 412.609 33.096 412.609 33.496C412.609 33.584 412.601 33.684 412.585 33.796C412.577 33.9 412.565 34 412.549 34.096H407.245V33.136H411.901L411.373 33.568C411.445 33.152 411.405 32.78 411.253 32.452C411.101 32.124 410.877 31.864 410.581 31.672C410.285 31.48 409.949 31.384 409.573 31.384C409.197 31.384 408.853 31.48 408.541 31.672C408.229 31.864 407.985 32.14 407.809 32.5C407.641 32.852 407.573 33.272 407.605 33.76C407.573 34.232 407.645 34.648 407.821 35.008C408.005 35.36 408.261 35.636 408.589 35.836C408.925 36.028 409.289 36.124 409.681 36.124C410.113 36.124 410.477 36.024 410.773 35.824C411.069 35.624 411.309 35.368 411.493 35.056L412.429 35.536C412.301 35.832 412.101 36.104 411.829 36.352C411.565 36.592 411.249 36.784 410.881 36.928C410.521 37.072 410.117 37.144 409.669 37.144ZM413.824 37V27.916H414.94V34.144L414.484 34.036L417.916 30.532H419.344L416.86 33.136L419.512 37H418.192L415.768 33.496L416.464 33.46L414.58 35.428L414.94 34.612V37H413.824Z" fill="#141522"/>
<path d="M439.96 30.475L436.7 33.735C436.315 34.12 435.685 34.12 435.3 33.735L432.04 30.475" stroke="#54577A" stroke-width="1.5" stroke-miterlimit="10" stroke-linecap="round" stroke-linejoin="round"/>
<path d="M20.176 39L24.368 27.08H26.704L30.896 39H28.88L27.968 36.328H23.12L22.192 39H20.176ZM23.664 34.648H27.392L25.28 28.408H25.808L23.664 34.648ZM35.6136 39.192C34.7496 39.192 33.9816 38.9947 33.3096 38.6C32.6483 38.1947 32.1203 37.6507 31.7256 36.968C31.3416 36.2853 31.1496 35.512 31.1496 34.648C31.1496 33.7947 31.3416 33.0267 31.7256 32.344C32.1096 31.6613 32.6376 31.128 33.3096 30.744C33.9816 30.3493 34.7496 30.152 35.6136 30.152C36.2003 30.152 36.7496 30.2587 37.2616 30.472C37.7736 30.6747 38.2163 30.9573 38.5896 31.32C38.9736 31.6827 39.2563 32.104 39.4376 32.584L37.8536 33.32C37.6723 32.872 37.379 32.5147 36.9736 32.248C36.579 31.9707 36.1256 31.832 35.6136 31.832C35.123 31.832 34.6803 31.9547 34.2856 32.2C33.9016 32.4347 33.5976 32.7707 33.3736 33.208C33.1496 33.6347 33.0376 34.12 33.0376 34.664C33.0376 35.208 33.1496 35.6987 33.3736 36.136C33.5976 36.5627 33.9016 36.8987 34.2856 37.144C34.6803 37.3893 35.123 37.512 35.6136 37.512C36.1363 37.512 36.5896 37.3787 36.9736 37.112C37.3683 36.8347 37.6616 36.4667 37.8536 36.008L39.4376 36.76C39.267 37.2187 38.9896 37.6347 38.6056 38.008C38.2323 38.3707 37.7896 38.6587 37.2776 38.872C36.7656 39.0853 36.211 39.192 35.6136 39.192ZM44.6288 39.096C43.7221 39.096 43.0181 38.84 42.5168 38.328C42.0154 37.816 41.7648 37.096 41.7648 36.168V31.976H40.2448V30.344H40.4848C40.8901 30.344 41.2048 30.2267 41.4288 29.992C41.6528 29.7573 41.7648 29.4373 41.7648 29.032V28.36H43.5728V30.344H45.5408V31.976H43.5728V36.088C43.5728 36.3867 43.6208 36.6427 43.7168 36.856C43.8128 37.0587 43.9674 37.2187 44.1808 37.336C44.3941 37.4427 44.6714 37.496 45.0128 37.496C45.0981 37.496 45.1941 37.4907 45.3008 37.48C45.4074 37.4693 45.5088 37.4587 45.6048 37.448V39C45.4554 39.0213 45.2901 39.0427 45.1088 39.064C44.9274 39.0853 44.7674 39.096 44.6288 39.096ZM47.0491 39V30.344H48.8571V39H47.0491ZM47.0491 29.16V27.08H48.8571V29.16H47.0491ZM53.163 39L49.771 30.344H51.739L54.347 37.4H53.627L56.235 30.344H58.219L54.811 39H53.163ZM59.1279 39V30.344H60.9359V39H59.1279ZM59.1279 29.16V27.08H60.9359V29.16H59.1279ZM66.4738 39.096C65.5671 39.096 64.8631 38.84 64.3618 38.328C63.8604 37.816 63.6098 37.096 63.6098 36.168V31.976H62.0898V30.344H62.3298C62.7351 30.344 63.0498 30.2267 63.2738 29.992C63.4978 29.7573 63.6098 29.4373 63.6098 29.032V28.36H65.4178V30.344H67.3858V31.976H65.4178V36.088C65.4178 36.3867 65.4658 36.6427 65.5618 36.856C65.6578 37.0587 65.8124 37.2187 66.0258 37.336C66.2391 37.4427 66.5164 37.496 66.8578 37.496C66.9431 37.496 67.0391 37.4907 67.1458 37.48C67.2524 37.4693 67.3538 37.4587 67.4498 37.448V39C67.3004 39.0213 67.1351 39.0427 66.9538 39.064C66.7724 39.0853 66.6124 39.096 66.4738 39.096ZM69.6621 42.536C69.4488 42.536 69.2355 42.5147 69.0221 42.472C68.8195 42.44 68.6328 42.3867 68.4621 42.312V40.76C68.5901 40.792 68.7448 40.8187 68.9261 40.84C69.1075 40.872 69.2835 40.888 69.4541 40.888C69.9555 40.888 70.3235 40.776 70.5581 40.552C70.8035 40.3387 71.0221 40.0027 71.2141 39.544L71.7901 38.232L71.7581 39.752L68.0141 30.344H69.9501L72.7181 37.56H72.0621L74.8141 30.344H76.7661L72.9421 39.944C72.7395 40.456 72.4835 40.904 72.1741 41.288C71.8755 41.6827 71.5181 41.9867 71.1021 42.2C70.6968 42.424 70.2168 42.536 69.6621 42.536Z" fill="#141522"/>
<rect x="20" y="64" width="422" height="130" rx="10" fill="white"/>
<path d="M39.8659 92.144C39.3939 92.144 38.9539 92.06 38.5459 91.892C38.1379 91.724 37.7859 91.488 37.4899 91.184C37.1939 90.872 36.9739 90.504 36.8299 90.08L37.8259 89.672C37.9939 90.12 38.2579 90.468 38.6179 90.716C38.9779 90.964 39.3939 91.088 39.8659 91.088C40.2339 91.088 40.5619 91.016 40.8499 90.872C41.1379 90.728 41.3619 90.52 41.5219 90.248C41.6899 89.976 41.7739 89.648 41.7739 89.264C41.7739 88.872 41.6899 88.544 41.5219 88.28C41.3619 88.008 41.1379 87.8 40.8499 87.656C40.5619 87.512 40.2299 87.44 39.8539 87.44C39.7339 87.44 39.6019 87.448 39.4579 87.464C39.3219 87.48 39.2059 87.504 39.1099 87.536L38.8579 86.996L41.2459 84.08H37.2859V83.06H42.5779V84.044L40.2979 86.852L40.2259 86.54C40.7619 86.556 41.2339 86.68 41.6419 86.912C42.0499 87.144 42.3699 87.46 42.6019 87.86C42.8339 88.252 42.9499 88.712 42.9499 89.24C42.9499 89.784 42.8179 90.276 42.5539 90.716C42.2899 91.156 41.9259 91.504 41.4619 91.76C40.9979 92.016 40.4659 92.144 39.8659 92.144Z" fill="#141522"/>
<path d="M37.0562 126V125.184L39.5282 122.508C40.0162 121.988 40.4042 121.56 40.6922 121.224C40.9882 120.888 41.2042 120.588 41.3402 120.324C41.4762 120.06 41.5442 119.78 41.5442 119.484C41.5442 118.996 41.4002 118.62 41.1122 118.356C40.8242 118.092 40.4442 117.96 39.9722 117.96C39.4922 117.96 39.0842 118.1 38.7482 118.38C38.4122 118.652 38.1802 119.04 38.0522 119.544L36.9842 119.268C37.0882 118.788 37.2802 118.372 37.5602 118.02C37.8402 117.668 38.1882 117.396 38.6042 117.204C39.0202 117.012 39.4762 116.916 39.9722 116.916C40.5162 116.916 40.9922 117.024 41.4002 117.24C41.8162 117.448 42.1402 117.74 42.3722 118.116C42.6122 118.492 42.7322 118.928 42.7322 119.424C42.7322 119.752 42.6642 120.072 42.5282 120.384C42.3922 120.696 42.1922 121.028 41.9282 121.38C41.6642 121.724 41.3202 122.124 40.8962 122.58L38.6882 124.98H42.9242V126H37.0562Z" fill="#141522"/>
<path d="M39.845 160V152.08H38.153V151.06H41.033V160H39.845Z" fill="#141522"/>
<line x1="64.5" y1="80" x2="64.5" y2="160" stroke="#F5F5F7"/>
<path d="M64.068 180.144C63.5 180.144 62.98 180.04 62.508 179.832C62.036 179.616 61.636 179.324 61.308 178.956C60.98 178.588 60.744 178.176 60.6 177.72L61.62 177.3C61.836 177.876 62.156 178.32 62.58 178.632C63.012 178.936 63.516 179.088 64.092 179.088C64.444 179.088 64.752 179.032 65.016 178.92C65.28 178.808 65.484 178.652 65.628 178.452C65.78 178.244 65.856 178.004 65.856 177.732C65.856 177.356 65.748 177.06 65.532 176.844C65.324 176.62 65.016 176.452 64.608 176.34L62.964 175.836C62.316 175.636 61.82 175.32 61.476 174.888C61.132 174.456 60.96 173.96 60.96 173.4C60.96 172.912 61.076 172.484 61.308 172.116C61.548 171.74 61.876 171.448 62.292 171.24C62.716 171.024 63.196 170.916 63.732 170.916C64.268 170.916 64.752 171.012 65.184 171.204C65.624 171.396 65.996 171.656 66.3 171.984C66.604 172.304 66.828 172.672 66.972 173.088L65.964 173.508C65.772 173.004 65.484 172.624 65.1 172.368C64.716 172.104 64.264 171.972 63.744 171.972C63.424 171.972 63.14 172.028 62.892 172.14C62.652 172.244 62.464 172.4 62.328 172.608C62.2 172.808 62.136 173.048 62.136 173.328C62.136 173.656 62.24 173.948 62.448 174.204C62.656 174.46 62.972 174.656 63.396 174.792L64.896 175.236C65.6 175.452 66.132 175.76 66.492 176.16C66.852 176.56 67.032 177.056 67.032 177.648C67.032 178.136 66.904 178.568 66.648 178.944C66.4 179.32 66.052 179.616 65.604 179.832C65.164 180.04 64.652 180.144 64.068 180.144Z" fill="#141522"/>
<line x1="125" y1="80" x2="125" y2="160" stroke="#F5F5F7"/>
<path d="M119.996 180V171.06H121.076L124.424 175.824H123.872L127.196 171.06H128.276V180H127.088V172.548L127.508 172.68L124.184 177.36H124.088L120.8 172.68L121.172 172.548V180H119.996Z" fill="#141522"/>
<line x1="185" y1="80" x2="185" y2="160" stroke="#F5F5F7"/>
<path d="M183.556 180V172.14H181.132V171.06H187.132V172.14H184.744V180H183.556Z" fill="#141522"/>
<line x1="245.5" y1="80" x2="245.5" y2="160" stroke="#F5F5F7"/>
<path d="M241.64 180L239.132 171.06H240.368L242.468 178.932H242.18L244.364 171.06H245.6L247.772 178.932H247.472L249.584 171.06H250.82L248.312 180H247.004L244.82 172.164H245.132L242.948 180H241.64Z" fill="#141522"/>
<line x1="306" y1="80" x2="306" y2="160" stroke="#F5F5F7"/>
<path d="M304.556 180V172.14H302.132V171.06H308.132V172.14H305.744V180H304.556Z" fill="#141522"/>
<line x1="364" y1="80" x2="364" y2="160" stroke="#F5F5F7"/>
<path d="M360.996 180V171.06H366.66V172.14H362.172V175.032H366.24V176.112H362.172V180H360.996Z" fill="#141522"/>
<line x1="422.5" y1="80" x2="422.5" y2="160" stroke="#F5F5F7"/>
<path d="M422.068 180.144C421.5 180.144 420.98 180.04 420.508 179.832C420.036 179.616 419.636 179.324 419.308 178.956C418.98 178.588 418.744 178.176 418.6 177.72L419.62 177.3C419.836 177.876 420.156 178.32 420.58 178.632C421.012 178.936 421.516 179.088 422.092 179.088C422.444 179.088 422.752 179.032 423.016 178.92C423.28 178.808 423.484 178.652 423.628 178.452C423.78 178.244 423.856 178.004 423.856 177.732C423.856 177.356 423.748 177.06 423.532 176.844C423.324 176.62 423.016 176.452 422.608 176.34L420.964 175.836C420.316 175.636 419.82 175.32 419.476 174.888C419.132 174.456 418.96 173.96 418.96 173.4C418.96 172.912 419.076 172.484 419.308 172.116C419.548 171.74 419.876 171.448 420.292 171.24C420.716 171.024 421.196 170.916 421.732 170.916C422.268 170.916 422.752 171.012 423.184 171.204C423.624 171.396 423.996 171.656 424.3 171.984C424.604 172.304 424.828 172.672 424.972 173.088L423.964 173.508C423.772 173.004 423.484 172.624 423.1 172.368C422.716 172.104 422.264 171.972 421.744 171.972C421.424 171.972 421.14 172.028 420.892 172.14C420.652 172.244 420.464 172.4 420.328 172.608C420.2 172.808 420.136 173.048 420.136 173.328C420.136 173.656 420.24 173.948 420.448 174.204C420.656 174.46 420.972 174.656 421.396 174.792L422.896 175.236C423.6 175.452 424.132 175.76 424.492 176.16C424.852 176.56 425.032 177.056 425.032 177.648C425.032 178.136 424.904 178.568 424.648 178.944C424.4 179.32 424.052 179.616 423.604 179.832C423.164 180.04 422.652 180.144 422.068 180.144Z" fill="#141522"/>
<path d="M64 169L108.556 145.19C117.134 140.606 127.403 140.465 136.104 144.812L166.901 160.2C177.595 165.543 190.44 164.027 199.596 156.342L228.389 132.176C238.437 123.742 252.801 122.815 263.85 129.888L291.53 147.608C300.517 153.361 311.882 153.908 321.379 149.044L355.692 131.471C361.273 128.613 367.609 127.576 373.81 128.504L422 135.72" stroke="#EBEDF7" stroke-width="3" stroke-linecap="round"/>
<path d="M64 160.532L107.075 132.957C117.859 126.053 131.835 126.755 141.874 134.704L161.703 150.406C174.678 160.68 193.522 158.506 203.816 145.547L224.794 119.141C235.599 105.541 255.66 103.931 268.496 115.633L290.418 135.62C299.45 143.854 312.572 145.786 323.593 140.505L355.3 125.313C360.601 122.773 366.532 121.847 372.355 122.649L422 129.484" stroke="#141522" stroke-width="3" stroke-linecap="round"/>
<g filter="url(#filter0_d_133_4876)">
<circle cx="124" cy="128" r="6" fill="white" stroke="#546FFF" stroke-width="4"/>
</g>
<g filter="url(#filter1_d_133_4876)">
<path d="M122.457 106.129C123.257 107.099 124.743 107.099 125.543 106.129L129.961 100.773C131.037 99.4681 130.109 97.5 128.418 97.5H119.582C117.891 97.5 116.963 99.4681 118.039 100.773L122.457 106.129Z" fill="#141522"/>
</g>
<rect x="82" y="61" width="84" height="40" rx="10" fill="#141522"/>
<path d="M105.084 87V85.81L107.94 82.758C108.5 82.1607 108.938 81.68 109.256 81.316C109.582 80.9427 109.816 80.616 109.956 80.336C110.105 80.056 110.18 79.762 110.18 79.454C110.18 78.95 110.026 78.5627 109.718 78.292C109.41 78.012 109.013 77.872 108.528 77.872C108.024 77.872 107.59 78.0167 107.226 78.306C106.862 78.586 106.61 78.9967 106.47 79.538L105.014 79.118C105.126 78.5673 105.35 78.0913 105.686 77.69C106.022 77.2793 106.432 76.962 106.918 76.738C107.412 76.514 107.944 76.402 108.514 76.402C109.176 76.402 109.755 76.528 110.25 76.78C110.744 77.0227 111.127 77.3633 111.398 77.802C111.678 78.2407 111.818 78.7493 111.818 79.328C111.818 79.7107 111.743 80.084 111.594 80.448C111.454 80.8027 111.234 81.1807 110.936 81.582C110.637 81.974 110.254 82.4173 109.788 82.912L107.268 85.6H112.014V87H105.084ZM117.564 87V78.04H114.792V76.57H121.932V78.04H119.202V87H117.564ZM124.167 87.168C123.654 87.168 123.201 87.0793 122.809 86.902C122.427 86.7153 122.128 86.4633 121.913 86.146C121.699 85.8193 121.591 85.4367 121.591 84.998C121.591 84.5873 121.68 84.2187 121.857 83.892C122.044 83.5653 122.329 83.29 122.711 83.066C123.094 82.842 123.575 82.6833 124.153 82.59L126.785 82.156V83.402L124.461 83.808C124.041 83.8827 123.733 84.018 123.537 84.214C123.341 84.4007 123.243 84.6433 123.243 84.942C123.243 85.2313 123.351 85.4693 123.565 85.656C123.789 85.8333 124.074 85.922 124.419 85.922C124.849 85.922 125.222 85.8287 125.539 85.642C125.866 85.4553 126.118 85.208 126.295 84.9C126.473 84.5827 126.561 84.2327 126.561 83.85V81.904C126.561 81.5307 126.421 81.2273 126.141 80.994C125.871 80.7513 125.507 80.63 125.049 80.63C124.629 80.63 124.261 80.742 123.943 80.966C123.635 81.1807 123.407 81.4607 123.257 81.806L121.941 81.148C122.081 80.7747 122.31 80.448 122.627 80.168C122.945 79.8787 123.313 79.6547 123.733 79.496C124.163 79.3373 124.615 79.258 125.091 79.258C125.689 79.258 126.216 79.37 126.673 79.594C127.14 79.818 127.499 80.1307 127.751 80.532C128.013 80.924 128.143 81.3813 128.143 81.904V87H126.631V85.628L126.953 85.67C126.776 85.978 126.547 86.244 126.267 86.468C125.997 86.692 125.684 86.8647 125.329 86.986C124.984 87.1073 124.597 87.168 124.167 87.168ZM132.513 87.168C131.738 87.168 131.057 86.9767 130.469 86.594C129.89 86.2113 129.484 85.698 129.251 85.054L130.469 84.48C130.674 84.9093 130.954 85.25 131.309 85.502C131.673 85.754 132.074 85.88 132.513 85.88C132.886 85.88 133.19 85.796 133.423 85.628C133.656 85.46 133.773 85.2313 133.773 84.942C133.773 84.7553 133.722 84.606 133.619 84.494C133.516 84.3727 133.386 84.2747 133.227 84.2C133.078 84.1253 132.924 84.0693 132.765 84.032L131.575 83.696C130.922 83.5093 130.432 83.2293 130.105 82.856C129.788 82.4733 129.629 82.03 129.629 81.526C129.629 81.0687 129.746 80.672 129.979 80.336C130.212 79.9907 130.534 79.7247 130.945 79.538C131.356 79.3513 131.818 79.258 132.331 79.258C133.022 79.258 133.638 79.4307 134.179 79.776C134.72 80.112 135.103 80.5833 135.327 81.19L134.109 81.764C133.96 81.4 133.722 81.1107 133.395 80.896C133.078 80.6813 132.718 80.574 132.317 80.574C131.972 80.574 131.696 80.658 131.491 80.826C131.286 80.9847 131.183 81.1947 131.183 81.456C131.183 81.6333 131.23 81.7827 131.323 81.904C131.416 82.016 131.538 82.1093 131.687 82.184C131.836 82.2493 131.99 82.3053 132.149 82.352L133.381 82.716C134.006 82.8933 134.487 83.1733 134.823 83.556C135.159 83.9293 135.327 84.3773 135.327 84.9C135.327 85.348 135.206 85.7447 134.963 86.09C134.73 86.426 134.403 86.692 133.983 86.888C133.563 87.0747 133.073 87.168 132.513 87.168ZM136.597 87V76.402H138.179V83.5L137.563 83.346L141.357 79.426H143.331L140.475 82.464L143.457 87H141.637L138.977 82.982L139.915 82.856L137.675 85.236L138.179 84.186V87H136.597Z" fill="white"/>
<defs>
<filter id="filter0_d_133_4876" x="112" y="120" width="24" height="24" filterUnits="userSpaceOnUse" color-interpolation-filters="sRGB">
<feFlood flood-opacity="0" result="BackgroundImageFix"/>
<feColorMatrix in="SourceAlpha" type="matrix" values="0 0 0 0 0 0 0 0 0 0 0 0 0 0 0 0 0 0 127 0" result="hardAlpha"/>
<feOffset dy="4"/>
<feGaussianBlur stdDeviation="2"/>
<feComposite in2="hardAlpha" operator="out"/>
<feColorMatrix type="matrix" values="0 0 0 0 0 0 0 0 0 0 0 0 0 0 0 0 0 0 0.1 0"/>
<feBlend mode="normal" in2="BackgroundImageFix" result="effect1_dropShadow_133_4876"/>
<feBlend mode="normal" in="SourceGraphic" in2="effect1_dropShadow_133_4876" result="shape"/>
</filter>
<filter id="filter1_d_133_4876" x="92.5781" y="76.5" width="62.8438" height="59.3568" filterUnits="userSpaceOnUse" color-interpolation-filters="sRGB">
<feFlood flood-opacity="0" result="BackgroundImageFix"/>
<feColorMatrix in="SourceAlpha" type="matrix" values="0 0 0 0 0 0 0 0 0 0 0 0 0 0 0 0 0 0 127 0" result="hardAlpha"/>
<feOffset dy="4"/>
<feGaussianBlur stdDeviation="12.5"/>
<feColorMatrix type="matrix" values="0 0 0 0 0 0 0 0 0 0 0 0 0 0 0 0 0 0 0.1 0"/>
<feBlend mode="normal" in2="BackgroundImageFix" result="effect1_dropShadow_133_4876"/>
<feBlend mode="normal" in="SourceGraphic" in2="effect1_dropShadow_133_4876" result="shape"/>
</filter>
</defs>
</svg>
