<svg width="372" height="160" viewBox="0 0 372 160" fill="none" xmlns="http://www.w3.org/2000/svg">
<rect width="372" height="160" rx="10" fill="white"/>
<path d="M36.5005 40.6L31.0672 35.1667C30.4255 34.525 30.4255 33.475 31.0672 32.8334L36.5005 27.4" stroke="#54577A" stroke-width="1.18719" stroke-miterlimit="10" stroke-linecap="round" stroke-linejoin="round"/>
<path d="M155.301 40V38.46H155.903C156.369 38.46 156.743 38.3247 157.023 38.054C157.303 37.774 157.443 37.4007 157.443 36.934V29.57H159.081V36.878C159.081 37.5127 158.95 38.0633 158.689 38.53C158.437 38.9967 158.068 39.3607 157.583 39.622C157.107 39.874 156.547 40 155.903 40H155.301ZM163.766 40.168C163.196 40.168 162.697 40.042 162.268 39.79C161.838 39.5287 161.502 39.1693 161.26 38.712C161.026 38.2453 160.91 37.7087 160.91 37.102V32.426H162.492V36.962C162.492 37.3073 162.562 37.6107 162.702 37.872C162.842 38.1333 163.038 38.3387 163.29 38.488C163.542 38.628 163.831 38.698 164.158 38.698C164.494 38.698 164.788 38.6233 165.04 38.474C165.292 38.3247 165.488 38.1147 165.628 37.844C165.777 37.5733 165.852 37.256 165.852 36.892V32.426H167.42V40H165.922V38.516L166.09 38.712C165.912 39.1787 165.618 39.538 165.208 39.79C164.797 40.042 164.316 40.168 163.766 40.168ZM169.267 40V29.402H170.849V40H169.267ZM173.37 43.094C173.184 43.094 172.997 43.0753 172.81 43.038C172.633 43.01 172.47 42.9633 172.32 42.898V41.54C172.432 41.568 172.568 41.5913 172.726 41.61C172.885 41.638 173.039 41.652 173.188 41.652C173.627 41.652 173.949 41.554 174.154 41.358C174.369 41.1713 174.56 40.8773 174.728 40.476L175.232 39.328L175.204 40.658L171.928 32.426H173.622L176.044 38.74H175.47L177.878 32.426H179.586L176.24 40.826C176.063 41.274 175.839 41.666 175.568 42.002C175.307 42.3473 174.994 42.6133 174.63 42.8C174.276 42.996 173.856 43.094 173.37 43.094ZM182.892 40V38.81L185.748 35.758C186.308 35.1607 186.747 34.68 187.064 34.316C187.391 33.9427 187.624 33.616 187.764 33.336C187.914 33.056 187.988 32.762 187.988 32.454C187.988 31.95 187.834 31.5627 187.526 31.292C187.218 31.012 186.822 30.872 186.336 30.872C185.832 30.872 185.398 31.0167 185.034 31.306C184.67 31.586 184.418 31.9967 184.278 32.538L182.822 32.118C182.934 31.5673 183.158 31.0913 183.494 30.69C183.83 30.2793 184.241 29.962 184.726 29.738C185.221 29.514 185.753 29.402 186.322 29.402C186.985 29.402 187.564 29.528 188.058 29.78C188.553 30.0227 188.936 30.3633 189.206 30.802C189.486 31.2407 189.626 31.7493 189.626 32.328C189.626 32.7107 189.552 33.084 189.402 33.448C189.262 33.8027 189.043 34.1807 188.744 34.582C188.446 34.974 188.063 35.4173 187.596 35.912L185.076 38.6H189.822V40H182.892ZM195.586 40.168C194.755 40.168 194.027 39.944 193.402 39.496C192.776 39.0387 192.286 38.4087 191.932 37.606C191.586 36.794 191.414 35.8513 191.414 34.778C191.414 33.6953 191.586 32.7527 191.932 31.95C192.286 31.1473 192.772 30.522 193.388 30.074C194.013 29.626 194.741 29.402 195.572 29.402C196.402 29.402 197.126 29.626 197.742 30.074C198.367 30.522 198.852 31.152 199.198 31.964C199.552 32.7667 199.73 33.7047 199.73 34.778C199.73 35.8513 199.557 36.794 199.212 37.606C198.866 38.4087 198.381 39.0387 197.756 39.496C197.14 39.944 196.416 40.168 195.586 40.168ZM195.586 38.656C196.099 38.656 196.542 38.4973 196.916 38.18C197.289 37.8627 197.578 37.4147 197.784 36.836C197.989 36.2573 198.092 35.5713 198.092 34.778C198.092 33.9847 197.989 33.2987 197.784 32.72C197.578 32.1413 197.289 31.6933 196.916 31.376C196.542 31.0587 196.094 30.9 195.572 30.9C195.058 30.9 194.615 31.0587 194.242 31.376C193.868 31.6933 193.579 32.1413 193.374 32.72C193.168 33.2987 193.066 33.9847 193.066 34.778C193.066 35.562 193.168 36.248 193.374 36.836C193.579 37.4147 193.868 37.8627 194.242 38.18C194.624 38.4973 195.072 38.656 195.586 38.656ZM201.281 40V38.81L204.137 35.758C204.697 35.1607 205.136 34.68 205.453 34.316C205.78 33.9427 206.013 33.616 206.153 33.336C206.302 33.056 206.377 32.762 206.377 32.454C206.377 31.95 206.223 31.5627 205.915 31.292C205.607 31.012 205.21 30.872 204.725 30.872C204.221 30.872 203.787 31.0167 203.423 31.306C203.059 31.586 202.807 31.9967 202.667 32.538L201.211 32.118C201.323 31.5673 201.547 31.0913 201.883 30.69C202.219 30.2793 202.63 29.962 203.115 29.738C203.61 29.514 204.142 29.402 204.711 29.402C205.374 29.402 205.952 29.528 206.447 29.78C206.942 30.0227 207.324 30.3633 207.595 30.802C207.875 31.2407 208.015 31.7493 208.015 32.328C208.015 32.7107 207.94 33.084 207.791 33.448C207.651 33.8027 207.432 34.1807 207.133 34.582C206.834 34.974 206.452 35.4173 205.985 35.912L203.465 38.6H208.211V40H201.281ZM209.648 40V38.81L212.504 35.758C213.064 35.1607 213.503 34.68 213.82 34.316C214.147 33.9427 214.38 33.616 214.52 33.336C214.67 33.056 214.744 32.762 214.744 32.454C214.744 31.95 214.59 31.5627 214.282 31.292C213.974 31.012 213.578 30.872 213.092 30.872C212.588 30.872 212.154 31.0167 211.79 31.306C211.426 31.586 211.174 31.9967 211.034 32.538L209.578 32.118C209.69 31.5673 209.914 31.0913 210.25 30.69C210.586 30.2793 210.997 29.962 211.482 29.738C211.977 29.514 212.509 29.402 213.078 29.402C213.741 29.402 214.32 29.528 214.814 29.78C215.309 30.0227 215.692 30.3633 215.962 30.802C216.242 31.2407 216.382 31.7493 216.382 32.328C216.382 32.7107 216.308 33.084 216.158 33.448C216.018 33.8027 215.799 34.1807 215.5 34.582C215.202 34.974 214.819 35.4173 214.352 35.912L211.832 38.6H216.578V40H209.648Z" fill="#141522"/>
<path d="M335.425 40.6L340.858 35.1667C341.5 34.525 341.5 33.475 340.858 32.8334L335.425 27.4" stroke="#54577A" stroke-width="1.18719" stroke-miterlimit="10" stroke-linecap="round" stroke-linejoin="round"/>
<rect x="216" y="74" width="40" height="72" rx="20" fill="#141522"/>
<path d="M36.1891 93.144C35.6211 93.144 35.1011 93.04 34.6291 92.832C34.1571 92.616 33.7571 92.324 33.4291 91.956C33.1011 91.588 32.8651 91.176 32.7211 90.72L33.7411 90.3C33.9571 90.876 34.2771 91.32 34.7011 91.632C35.1331 91.936 35.6371 92.088 36.2131 92.088C36.5651 92.088 36.8731 92.032 37.1371 91.92C37.4011 91.808 37.6051 91.652 37.7491 91.452C37.9011 91.244 37.9771 91.004 37.9771 90.732C37.9771 90.356 37.8691 90.06 37.6531 89.844C37.4451 89.62 37.1371 89.452 36.7291 89.34L35.0851 88.836C34.4371 88.636 33.9411 88.32 33.5971 87.888C33.2531 87.456 33.0811 86.96 33.0811 86.4C33.0811 85.912 33.1971 85.484 33.4291 85.116C33.6691 84.74 33.9971 84.448 34.4131 84.24C34.8371 84.024 35.3171 83.916 35.8531 83.916C36.3891 83.916 36.8731 84.012 37.3051 84.204C37.7451 84.396 38.1171 84.656 38.4211 84.984C38.7251 85.304 38.9491 85.672 39.0931 86.088L38.0851 86.508C37.8931 86.004 37.6051 85.624 37.2211 85.368C36.8371 85.104 36.3851 84.972 35.8651 84.972C35.5451 84.972 35.2611 85.028 35.0131 85.14C34.7731 85.244 34.5851 85.4 34.4491 85.608C34.3211 85.808 34.2571 86.048 34.2571 86.328C34.2571 86.656 34.3611 86.948 34.5691 87.204C34.7771 87.46 35.0931 87.656 35.5171 87.792L37.0171 88.236C37.7211 88.452 38.2531 88.76 38.6131 89.16C38.9731 89.56 39.1531 90.056 39.1531 90.648C39.1531 91.136 39.0251 91.568 38.7691 91.944C38.5211 92.32 38.1731 92.616 37.7251 92.832C37.2851 93.04 36.7731 93.144 36.1891 93.144Z" fill="#141522"/>
<rect x="20" y="108" width="32" height="32" rx="16" fill="#F5F5F7"/>
<path d="M31.6232 129V121.08H29.9312V120.06H32.8112V129H31.6232ZM38.1852 129.144C37.4732 129.144 36.8492 128.952 36.3132 128.568C35.7852 128.176 35.3732 127.636 35.0772 126.948C34.7812 126.252 34.6332 125.444 34.6332 124.524C34.6332 123.604 34.7812 122.8 35.0772 122.112C35.3732 121.416 35.7852 120.876 36.3132 120.492C36.8412 120.108 37.4612 119.916 38.1732 119.916C38.8852 119.916 39.5052 120.108 40.0332 120.492C40.5612 120.876 40.9732 121.416 41.2692 122.112C41.5732 122.8 41.7252 123.604 41.7252 124.524C41.7252 125.444 41.5772 126.252 41.2812 126.948C40.9852 127.644 40.5692 128.184 40.0332 128.568C39.5052 128.952 38.8892 129.144 38.1852 129.144ZM38.1852 128.052C38.6652 128.052 39.0812 127.908 39.4332 127.62C39.7852 127.324 40.0572 126.912 40.2492 126.384C40.4492 125.856 40.5492 125.236 40.5492 124.524C40.5492 123.812 40.4492 123.192 40.2492 122.664C40.0572 122.136 39.7812 121.728 39.4212 121.44C39.0692 121.152 38.6532 121.008 38.1732 121.008C37.6932 121.008 37.2772 121.152 36.9252 121.44C36.5732 121.728 36.2972 122.136 36.0972 122.664C35.9052 123.192 35.8092 123.812 35.8092 124.524C35.8092 125.228 35.9052 125.844 36.0972 126.372C36.2972 126.9 36.5732 127.312 36.9252 127.608C37.2852 127.904 37.7052 128.052 38.1852 128.052Z" fill="#141522"/>
<path d="M81.8632 93V84.06H82.9432L86.2912 88.824H85.7392L89.0632 84.06H90.1432V93H88.9552V85.548L89.3752 85.68L86.0512 90.36H85.9552L82.6672 85.68L83.0392 85.548V93H81.8632Z" fill="#141522"/>
<rect x="70" y="108" width="32" height="32" rx="16" fill="#F5F5F7"/>
<path d="M83.674 129V121.08H81.982V120.06H84.862V129H83.674ZM88.016 129V121.08H86.324V120.06H89.204V129H88.016Z" fill="#141522"/>
<path d="M135.421 93V85.14H132.997V84.06H138.997V85.14H136.609V93H135.421Z" fill="#141522"/>
<rect x="120" y="108" width="32" height="32" rx="16" fill="#F5F5F7"/>
<path d="M132.373 129V121.08H130.681V120.06H133.561V129H132.373ZM135.227 129V128.184L137.699 125.508C138.187 124.988 138.575 124.56 138.863 124.224C139.159 123.888 139.375 123.588 139.511 123.324C139.647 123.06 139.715 122.78 139.715 122.484C139.715 121.996 139.571 121.62 139.283 121.356C138.995 121.092 138.615 120.96 138.143 120.96C137.663 120.96 137.255 121.1 136.919 121.38C136.583 121.652 136.351 122.04 136.223 122.544L135.155 122.268C135.259 121.788 135.451 121.372 135.731 121.02C136.011 120.668 136.359 120.396 136.775 120.204C137.191 120.012 137.647 119.916 138.143 119.916C138.687 119.916 139.163 120.024 139.571 120.24C139.987 120.448 140.311 120.74 140.543 121.116C140.783 121.492 140.903 121.928 140.903 122.424C140.903 122.752 140.835 123.072 140.699 123.384C140.563 123.696 140.363 124.028 140.099 124.38C139.835 124.724 139.491 125.124 139.067 125.58L136.859 127.98H141.095V129H135.227Z" fill="#141522"/>
<path d="M182.663 93L180.155 84.06H181.391L183.491 91.932H183.203L185.387 84.06H186.623L188.795 91.932H188.495L190.607 84.06H191.843L189.335 93H188.027L185.843 85.164H186.155L183.971 93H182.663Z" fill="#141522"/>
<rect x="170" y="108" width="32" height="32" rx="16" fill="#F5F5F7"/>
<path d="M182.303 129V121.08H180.611V120.06H183.491V129H182.303ZM188.037 129.144C187.565 129.144 187.125 129.06 186.717 128.892C186.309 128.724 185.957 128.488 185.661 128.184C185.365 127.872 185.145 127.504 185.001 127.08L185.997 126.672C186.165 127.12 186.429 127.468 186.789 127.716C187.149 127.964 187.565 128.088 188.037 128.088C188.405 128.088 188.733 128.016 189.021 127.872C189.309 127.728 189.533 127.52 189.693 127.248C189.861 126.976 189.945 126.648 189.945 126.264C189.945 125.872 189.861 125.544 189.693 125.28C189.533 125.008 189.309 124.8 189.021 124.656C188.733 124.512 188.401 124.44 188.025 124.44C187.905 124.44 187.773 124.448 187.629 124.464C187.493 124.48 187.377 124.504 187.281 124.536L187.029 123.996L189.417 121.08H185.457V120.06H190.749V121.044L188.469 123.852L188.397 123.54C188.933 123.556 189.405 123.68 189.813 123.912C190.221 124.144 190.541 124.46 190.773 124.86C191.005 125.252 191.121 125.712 191.121 126.24C191.121 126.784 190.989 127.276 190.725 127.716C190.461 128.156 190.097 128.504 189.633 128.76C189.169 129.016 188.637 129.144 188.037 129.144Z" fill="#141522"/>
<path d="M235.315 93V85.32H232.939V84.06H239.059V85.32H236.719V93H235.315Z" fill="white"/>
<rect x="220" y="108" width="32" height="32" rx="16" fill="#546FFF"/>
<path d="M232.003 129V121.26H230.287V120.06H233.407V129H232.003ZM239.079 129V126.984H234.819V125.808L239.019 120.06H240.423V125.808H241.659V126.984H240.423V129H239.079ZM235.863 126.324L235.635 125.808H239.079V121.188L239.463 121.308L235.863 126.324Z" fill="#F5F5F7"/>
<path d="M283.498 93V84.06H289.162V85.14H284.674V88.032H288.742V89.112H284.674V93H283.498Z" fill="#141522"/>
<rect x="270" y="108" width="32" height="32" rx="16" fill="#F5F5F7"/>
<path d="M282.268 129V121.08H280.576V120.06H283.456V129H282.268ZM288.074 129.144C287.61 129.144 287.174 129.064 286.766 128.904C286.358 128.736 286.002 128.5 285.698 128.196C285.402 127.884 285.186 127.52 285.05 127.104L286.01 126.696C286.178 127.136 286.45 127.48 286.826 127.728C287.21 127.968 287.626 128.088 288.074 128.088C288.442 128.088 288.766 128.008 289.046 127.848C289.334 127.68 289.558 127.452 289.718 127.164C289.878 126.868 289.958 126.54 289.958 126.18C289.958 125.804 289.874 125.472 289.706 125.184C289.546 124.896 289.326 124.672 289.046 124.512C288.766 124.344 288.446 124.26 288.086 124.26C287.718 124.26 287.382 124.344 287.078 124.512C286.774 124.68 286.554 124.892 286.418 125.148L285.47 124.944L286.154 120.06H290.786V121.08H286.598L287.054 120.624L286.526 124.416L286.118 124.176C286.382 123.84 286.69 123.6 287.042 123.456C287.402 123.304 287.79 123.228 288.206 123.228C288.79 123.228 289.302 123.36 289.742 123.624C290.182 123.888 290.526 124.24 290.774 124.68C291.022 125.12 291.146 125.62 291.146 126.18C291.146 126.74 291.01 127.244 290.738 127.692C290.474 128.14 290.11 128.496 289.646 128.76C289.19 129.016 288.666 129.144 288.074 129.144Z" fill="#141522"/>
<path d="M336.189 93.144C335.621 93.144 335.101 93.04 334.629 92.832C334.157 92.616 333.757 92.324 333.429 91.956C333.101 91.588 332.865 91.176 332.721 90.72L333.741 90.3C333.957 90.876 334.277 91.32 334.701 91.632C335.133 91.936 335.637 92.088 336.213 92.088C336.565 92.088 336.873 92.032 337.137 91.92C337.401 91.808 337.605 91.652 337.749 91.452C337.901 91.244 337.977 91.004 337.977 90.732C337.977 90.356 337.869 90.06 337.653 89.844C337.445 89.62 337.137 89.452 336.729 89.34L335.085 88.836C334.437 88.636 333.941 88.32 333.597 87.888C333.253 87.456 333.081 86.96 333.081 86.4C333.081 85.912 333.197 85.484 333.429 85.116C333.669 84.74 333.997 84.448 334.413 84.24C334.837 84.024 335.317 83.916 335.853 83.916C336.389 83.916 336.873 84.012 337.305 84.204C337.745 84.396 338.117 84.656 338.421 84.984C338.725 85.304 338.949 85.672 339.093 86.088L338.085 86.508C337.893 86.004 337.605 85.624 337.221 85.368C336.837 85.104 336.385 84.972 335.865 84.972C335.545 84.972 335.261 85.028 335.013 85.14C334.773 85.244 334.585 85.4 334.449 85.608C334.321 85.808 334.257 86.048 334.257 86.328C334.257 86.656 334.361 86.948 334.569 87.204C334.777 87.46 335.093 87.656 335.517 87.792L337.017 88.236C337.721 88.452 338.253 88.76 338.613 89.16C338.973 89.56 339.153 90.056 339.153 90.648C339.153 91.136 339.025 91.568 338.769 91.944C338.521 92.32 338.173 92.616 337.725 92.832C337.285 93.04 336.773 93.144 336.189 93.144Z" fill="#141522"/>
<rect x="320" y="108" width="32" height="32" rx="16" fill="#F5F5F7"/>
<path d="M332.432 129V121.08H330.74V120.06H333.62V129H332.432ZM338.133 129.144C337.557 129.144 337.045 129.016 336.597 128.76C336.157 128.504 335.809 128.156 335.553 127.716C335.297 127.268 335.169 126.76 335.169 126.192C335.169 125.88 335.205 125.572 335.277 125.268C335.349 124.964 335.465 124.656 335.625 124.344C335.785 124.032 335.989 123.708 336.237 123.372L338.757 120.06H340.173L337.089 124.068L336.873 124.044C336.993 123.884 337.125 123.76 337.269 123.672C337.421 123.584 337.581 123.52 337.749 123.48C337.925 123.44 338.109 123.42 338.301 123.42C338.829 123.42 339.301 123.544 339.717 123.792C340.141 124.032 340.473 124.364 340.713 124.788C340.961 125.212 341.085 125.7 341.085 126.252C341.085 126.804 340.957 127.3 340.701 127.74C340.445 128.172 340.093 128.516 339.645 128.772C339.205 129.02 338.701 129.144 338.133 129.144ZM338.133 128.088C338.469 128.088 338.769 128.012 339.033 127.86C339.297 127.7 339.505 127.48 339.657 127.2C339.817 126.92 339.897 126.608 339.897 126.264C339.897 125.904 339.821 125.592 339.669 125.328C339.517 125.056 339.309 124.84 339.045 124.68C338.781 124.52 338.477 124.44 338.133 124.44C337.797 124.44 337.493 124.52 337.221 124.68C336.949 124.84 336.737 125.056 336.585 125.328C336.433 125.592 336.357 125.904 336.357 126.264C336.357 126.608 336.433 126.92 336.585 127.2C336.745 127.48 336.957 127.7 337.221 127.86C337.493 128.012 337.797 128.088 338.133 128.088Z" fill="#141522"/>
</svg>
